<?xml version="1.0" encoding="UTF-8" standalone="no"?>
<svg
   xmlns:dc="http://purl.org/dc/elements/1.1/"
   xmlns:cc="http://creativecommons.org/ns#"
   xmlns:rdf="http://www.w3.org/1999/02/22-rdf-syntax-ns#"
   xmlns:svg="http://www.w3.org/2000/svg"
   xmlns="http://www.w3.org/2000/svg"
   xmlns:sodipodi="http://sodipodi.sourceforge.net/DTD/sodipodi-0.dtd"
   xmlns:inkscape="http://www.inkscape.org/namespaces/inkscape"
   version="1.1"
   id="tray-icon-layer"
   x="0px"
   y="0px"
   width="240"
   height="240"
   viewBox="0 0 240 240"
   xml:space="preserve"
   inkscape:version="0.48.2 r9819"
   sodipodi:docname="easybrain-log.svg"><metadata
   id="metadata12"><rdf:RDF><cc:Work
       rdf:about=""><dc:format>image/svg+xml</dc:format><dc:type
         rdf:resource="http://purl.org/dc/dcmitype/StillImage" /><dc:title></dc:title></cc:Work></rdf:RDF></metadata><defs
   id="defs10"><inkscape:path-effect
     effect="skeletal"
     id="path-effect3862"
     is_visible="true"
     pattern="m 2.5,11.75 c 0,-2.76 2.24,-5 5,-5 2.76,0 5,2.24 5,5 0,2.76 -2.24,5 -5,5 -2.76,0 -5,-2.24 -5,-5 z"
     copytype="single_stretched"
     prop_scale="1"
     scale_y_rel="false"
     spacing="0"
     normal_offset="0"
     tang_offset="0"
     prop_units="false"
     vertical_pattern="false"
     fuse_tolerance="0" /><inkscape:path-effect
     effect="spiro"
     id="path-effect3856"
     is_visible="true" /><inkscape:path-effect
     effect="spiro"
     id="path-effect3852"
     is_visible="true" /><inkscape:perspective
     sodipodi:type="inkscape:persp3d"
     inkscape:vp_x="0 : 16 : 1"
     inkscape:vp_y="0 : 1000 : 0"
     inkscape:vp_z="32 : 16 : 1"
     inkscape:persp3d-origin="16 : 10.666667 : 1"
     id="perspective14" /><inkscape:perspective
     id="perspective2832"
     inkscape:persp3d-origin="0.5 : 0.33333333 : 1"
     inkscape:vp_z="1 : 0.5 : 1"
     inkscape:vp_y="0 : 1000 : 0"
     inkscape:vp_x="0 : 0.5 : 1"
     sodipodi:type="inkscape:persp3d" /></defs><sodipodi:namedview
   pagecolor="#ffffff"
   bordercolor="#666666"
   borderopacity="1"
   objecttolerance="10"
   gridtolerance="10"
   guidetolerance="10"
   inkscape:pageopacity="0"
   inkscape:pageshadow="2"
   inkscape:window-width="1366"
   inkscape:window-height="719"
   id="namedview8"
   showgrid="false"
   inkscape:zoom="1"
   inkscape:cx="-158.01005"
   inkscape:cy="167.32432"
   inkscape:window-x="-4"
   inkscape:window-y="-4"
   inkscape:window-maximized="1"
   inkscape:current-layer="tray-icon-layer" />
<g
   id="tray-icon"
   transform="matrix(7.4523494,0,0,7.4523494,0,1.5248205)">
	<rect
   style="fill:none"
   width="32"
   height="32"
   id="rect4"
   x="0"
   y="0" />
	<path
   style="fill:#812530;fill-opacity:1"
   d="m 15.9375,3.5 c -7.0303226,0 -12.75,5.69164 -12.75,12.6875 0,6.99586 5.7196774,12.6875 12.75,12.6875 7.030323,0 12.75,-5.69164 12.75,-12.6875 C 28.6875,9.19164 22.967823,3.5 15.9375,3.5 z"
   id="path6"
   inkscape:connector-curvature="0" />
</g>
<text
   xml:space="preserve"
   style="font-size:181.57847595px;font-style:normal;font-variant:normal;font-weight:bold;font-stretch:normal;text-indent:0;text-align:start;text-decoration:none;line-height:normal;letter-spacing:normal;word-spacing:normal;text-transform:none;direction:ltr;block-progression:tb;writing-mode:lr-tb;text-anchor:start;color:#000000;fill:#f9f9f9;fill-opacity:1;fill-rule:nonzero;stroke:none;stroke-width:1px;marker:none;visibility:visible;display:inline;overflow:visible;enable-background:accumulate;font-family:Bitstream Vera Sans;-inkscape-font-specification:Andale Mono Bold"
   x="51.184311"
   y="192.96648"
   id="text2820"
   transform="scale(1.174704,0.85127829)"><tspan
     sodipodi:role="line"
     id="tspan2822"
     x="51.184311"
     y="192.96648"
     style="font-style:italic;font-weight:normal;-inkscape-font-specification:Andale Mono Italic">e</tspan></text>


<g
   transform="matrix(7.7182064,0,0,7.4461573,-2.6494703,-4.8667192)"
   style="font-size:25.16741943px;font-style:normal;font-variant:normal;font-weight:bold;font-stretch:normal;text-indent:0;text-align:start;text-decoration:none;line-height:normal;letter-spacing:normal;word-spacing:normal;text-transform:none;direction:ltr;block-progression:tb;writing-mode:lr-tb;text-anchor:start;color:#000000;fill:#000000;fill-opacity:1;fill-rule:nonzero;stroke:none;stroke-width:1px;marker:none;visibility:visible;display:inline;overflow:visible;enable-background:accumulate;font-family:Bitstream Vera Sans;-inkscape-font-specification:Andale Mono Bold"
   id="text2820-0"><path
     d="m 20.696364,20.289886 0.01887,-0.01207 c 0.305143,-0.132007 1.451864,-0.69185 2.310501,-1.406899 0.737622,-0.614272 0.846873,-1.792142 0.846894,-3.015484 -2.1e-5,-0.779188 -0.115325,-1.507733 -0.345914,-2.185642 -0.23067,-0.685669 -0.58056,-1.31292 -1.049712,-1.881743 C 21.72154,10.837442 20.775246,10.105 19.63812,9.5907181 18.508914,9.076464 17.284298,8.8193299 15.964271,8.8193153 c -0.92245,1.46e-5 -1.805127,0.1207897 -2.648034,0.3623255 -0.842927,0.2337726 -1.622228,0.5805139 -2.337905,1.0402252 -1.176909,0.763623 -2.0953704,1.7532 -2.7553859,2.968732 -0.6520728,1.207761 -0.9781067,2.516807 -0.9781029,3.927142 -3.8e-6,1.161006 0.2107258,2.251877 0.6321891,3.272619 0.429406,1.012955 1.045689,1.909028 1.8488519,2.688221 0.7951978,0.763611 1.7057078,1.344111 2.7315308,1.741501 1.033757,0.405179 2.135115,0.60777 3.304079,0.607772 1.001945,-2e-6 2.003903,-0.183112 3.005876,-0.549332 1.001943,-0.366224 1.856788,-0.861011 2.564537,-1.484367 l 1.276306,1.893444 c -0.994026,0.755816 -2.07948,1.33242 -3.256367,1.729813 -1.168966,0.405176 -2.357798,0.607767 -3.566497,0.607771 -1.47114,-4e-6 -2.858772,-0.257138 -4.1629,-0.771402 C 10.318306,26.3473 9.1573066,25.607065 8.1394499,24.633075 7.1215835,23.65908 6.3462588,22.533145 5.8134739,21.255264 5.2806841,19.969596 5.0142907,18.590423 5.0142926,17.11774 5.0142907,15.699613 5.2846599,14.347712 5.8254022,13.062031 6.3661387,11.776371 7.1374876,10.64654 8.1394499,9.6725336 9.1414026,8.7063468 10.306377,7.9583205 11.634377,7.4284525 c 1.335936,-0.5298359 2.719591,-0.7947619 4.150972,-0.7947787 1.781247,1.68e-5 3.399488,0.3350703 4.85473,1.0051613 1.455207,0.6623308 2.67187,1.6207395 3.649993,2.8752299 0.596382,0.763622 1.045673,1.593464 1.347874,2.489526 0.310107,0.888292 0.465172,1.823325 0.465194,2.805101 -2.2e-5,2.111624 -0.555265,3.318826 -1.851428,4.487614 -1.296204,1.168794 -4.007242,2.250339 -6.477308,2.362598 l 2.512772,-1.759983"
     style="fill:#ffffff;marker:none"
     id="path2856"
     sodipodi:nodetypes="ccssscsssssscsssscccscssssssscscsscc"
     inkscape:connector-curvature="0" /></g><path
   style="fill:#812530;fill-opacity:1;fill-rule:evenodd;stroke:none"
   d="m 118.76353,152.60138 c -0.79015,-2.64448 10.44388,-8.33094 25.06106,-12.71285 7.63404,-2.28851 14.68798,-3.77544 19.80073,-4.30097 0,0 0,0 0,0 2.97694,-0.30674 5.28227,-0.28537 6.67309,0.0879 0,0 0,0 0,0 0.4797,0.12735 0.84152,0.29942 1.09142,0.51243 0,0 0,0 0,0 0.11902,0.17015 0.19558,0.27305 0.24984,0.3444 0,0 0,0 0,0 0,0 1e-5,0 1e-5,0 0,0 0,0 0,0 0.0432,0.0911 0.0625,0.11643 0.0745,0.12944 0.0178,0.016 0.0154,0.0125 0.0154,0.0125 0,0 7e-5,-0.004 0.006,0.0165 -0.007,0.0205 -0.004,0.0515 0.0185,0.14954 0,0 0,0 0,0 0,0 0,0 0,0 0,0 0,0 0,0 -0.002,0.0905 -0.014,0.22262 -0.0158,0.43164 0,0 0,0 0,0 -0.084,0.32042 -0.30013,0.67361 -0.62198,1.04887 0,0 0,0 0,0 -0.94433,1.09545 -2.87197,2.40573 -5.51587,3.79882 0,0 0,0 0,0 -4.55233,2.39732 -11.26421,5.05741 -18.90458,7.34783 -14.6293,4.38556 -27.14244,5.77848 -27.93259,3.134 z"
   id="path3860"
   inkscape:path-effect="#path-effect3862"
   inkscape:original-d="m 118.76353,152.60138 c 53.30551,-15.92723 52.96598,-15.92723 52.96598,-15.92723"
   inkscape:connector-curvature="0" /></svg>