<?xml version="1.0" encoding="UTF-8" standalone="no"?>
<!-- Created with Inkscape (http://www.inkscape.org/) -->

<svg
   xmlns:dc="http://purl.org/dc/elements/1.1/"
   xmlns:cc="http://creativecommons.org/ns#"
   xmlns:rdf="http://www.w3.org/1999/02/22-rdf-syntax-ns#"
   xmlns:svg="http://www.w3.org/2000/svg"
   xmlns="http://www.w3.org/2000/svg"
   xmlns:sodipodi="http://sodipodi.sourceforge.net/DTD/sodipodi-0.dtd"
   xmlns:inkscape="http://www.inkscape.org/namespaces/inkscape"
   id="svg3074"
   version="1.1"
   inkscape:version="0.47 r22583"
   width="50"
   height="45"
   sodipodi:docname="clear.svg">
  <metadata
     id="metadata3080">
    <rdf:RDF>
      <cc:Work
         rdf:about="">
        <dc:format>image/svg+xml</dc:format>
        <dc:type
           rdf:resource="http://purl.org/dc/dcmitype/StillImage" />
        <dc:title />
      </cc:Work>
    </rdf:RDF>
  </metadata>
  <defs
     id="defs3078">
    <inkscape:perspective
       sodipodi:type="inkscape:persp3d"
       inkscape:vp_x="0 : 22.5 : 1"
       inkscape:vp_y="0 : 1000 : 0"
       inkscape:vp_z="50 : 22.5 : 1"
       inkscape:persp3d-origin="25 : 15 : 1"
       id="perspective8" />
  </defs>
  <sodipodi:namedview
     pagecolor="#ffffff"
     bordercolor="#666666"
     borderopacity="1"
     objecttolerance="10"
     gridtolerance="10"
     guidetolerance="10"
     inkscape:pageopacity="0"
     inkscape:pageshadow="2"
     inkscape:window-width="1246"
     inkscape:window-height="960"
     id="namedview3076"
     showgrid="false"
     inkscape:zoom="23.2"
     inkscape:cx="27.607254"
     inkscape:cy="21.384507"
     inkscape:window-x="0"
     inkscape:window-y="0"
     inkscape:window-maximized="0"
     inkscape:current-layer="svg3074" />
  <path
     style="fill:#f20000;stroke:#000000;stroke-width:0.875;stroke-linecap:butt;stroke-linejoin:miter;stroke-opacity:1;fill-opacity:1;stroke-miterlimit:4;stroke-dasharray:none"
     d="m 13.965517,10.517241 c 1.690421,2.253894 -0.398491,-0.5578877 0.862069,1.206897 0.167023,0.233831 0.352454,0.454244 0.517242,0.689655 0.23766,0.339515 0.430762,0.710866 0.689655,1.034483 0.432317,0.540397 0.931108,1.024427 1.37931,1.551724 0.529012,0.622367 1.038486,1.261114 1.551724,1.896552 0.122636,0.151836 0.243978,0.304742 0.364645,0.458205 0.56187,0.714579 1.109113,1.441223 1.704321,2.128002 2.006414,2.315093 2.722236,2.816674 4.827586,5 2.089755,2.167153 4.024561,4.473309 6.206897,6.551724 1.229561,1.171011 1.646161,1.557211 2.931034,2.413793 0.27883,0.185887 0.589377,0.322461 0.862069,0.517241 0.132275,0.09448 0.209575,0.254659 0.344828,0.344828"
     id="path3828"
     inkscape:connector-curvature="0"
     sodipodi:nodetypes="cssssssssssss" />
  <path
     style="fill:#f20a00;stroke:#000000;stroke-width:0.875;stroke-linecap:butt;stroke-linejoin:miter;stroke-opacity:1;fill-opacity:1;stroke-miterlimit:4;stroke-dasharray:none"
     d="m 39.482759,10.344828 c -0.80778,0.673149 -0.839149,0.761536 -1.551725,1.206896 -0.859104,0.53694 -1.334888,0.75908 -2.241379,1.37931 -0.645137,0.44141 -1.26218,0.922564 -1.896552,1.379311 -1.726958,1.24341 -3.016033,2.10184 -4.655172,3.448276 -3.46e-4,2.84e-4 -5.170773,4.481352 -5.172414,4.482758 -0.743084,0.63693 -1.506655,1.249995 -2.241379,1.896552 -0.702341,0.61806 -1.347681,1.300708 -2.068966,1.896552 -0.602656,0.497846 -1.300948,0.873047 -1.896551,1.37931 -0.557351,0.473748 -1.019054,1.050387 -1.551724,1.551724 -0.03311,0.03116 -0.06638,0.06216 -0.09978,0.093 -0.415409,0.383544 -0.852221,0.743564 -1.279533,1.113901 -0.400408,0.347021 -0.83223,0.659816 -1.206896,1.034483 -3.243902,3.243901 0.986925,-0.807718 -1.379311,1.896551 -0.189225,0.216258 -0.486463,0.31405 -0.689655,0.517242 -0.672885,0.672885 0.03991,0.09259 -0.172414,0.517241 -0.03635,0.0727 -0.114942,0.114943 -0.172413,0.172414"
     id="path3864"
     inkscape:connector-curvature="0"
     sodipodi:nodetypes="csssssssssssssssc" />
  <path
     style="opacity:0.98999999000000005;fill:#ffffff;fill-opacity:1;stroke:#000000;stroke-width:0.875;stroke-miterlimit:4;stroke-opacity:1;stroke-dasharray:none"
     d="M 10.421652,34.837026 C 9.9506754,34.771233 9.8596353,34.708262 9.9967181,34.543087 10.05114,34.477513 10.17419,34.19563 10.270162,33.916679 c 0.107331,-0.311962 0.302883,-0.64017 0.508045,-0.852685 0.183451,-0.190027 0.470011,-0.558866 0.636799,-0.819642 0.36156,-0.565305 1.536931,-1.726706 3.248712,-3.210099 0.6875,-0.595773 1.502156,-1.343819 1.810345,-1.662323 0.30819,-0.318505 1.064655,-0.956897 1.681035,-1.418649 0.616379,-0.461752 1.50862,-1.199335 1.982758,-1.639073 0.474138,-0.439738 1.162716,-1.052744 1.530173,-1.362234 0.367457,-0.309492 0.668103,-0.589128 0.668103,-0.621415 0,-0.06747 1.36289,-1.228094 1.518457,-1.293103 0.05673,-0.02371 1.078121,-0.889525 2.269754,-1.924039 1.191635,-1.034514 2.562765,-2.198487 3.046957,-2.586606 1.37115,-1.099087 5.52561,-4.072357 6.845053,-4.898877 1.201362,-0.752552 2.09465,-1.359056 2.569779,-1.7447695 l 0.258621,-0.2099502 0.581896,0.6777367 c 0.320044,0.372755 0.581752,0.708804 0.581575,0.746776 -6.03e-4,0.12161 -0.978271,0.86433 -1.860053,1.413002 -1.715578,1.067485 -2.007414,1.263351 -3.649167,2.44914 -3.265151,2.358321 -4.389689,3.235837 -6.731837,5.253084 -1.30388,1.123007 -2.467673,2.149465 -2.586207,2.281017 -0.281874,0.312831 -1.336731,1.215899 -1.420269,1.215899 -0.08587,0 -0.8534,0.658312 -2.329731,1.998205 -0.663793,0.602447 -1.439655,1.260064 -1.724138,1.461369 -0.889343,0.629314 -1.262985,0.944605 -2.284483,1.927715 -0.545259,0.524767 -1.481421,1.369087 -2.080361,1.876267 -0.874443,0.740472 -1.16808,1.04905 -1.490472,1.566307 -0.220819,0.35429 -0.67151,0.918504 -1.001535,1.253809 -0.330025,0.335304 -0.600046,0.660998 -0.600046,0.723764 0,0.06276 -0.07825,0.184938 -0.173899,0.271495 l -0.703409,0.03041 c 0.145028,0.07625 -0.64397,0.01206 -0.950965,0.01781 l 0,0 z"
     id="path2818"
     sodipodi:nodetypes="csssssssssssssscccssssssssssssscccc" />
  <path
     style="opacity:0.98999999000000005;fill:#ffffff;fill-opacity:1;stroke:#000000;stroke-width:0.875;stroke-miterlimit:4;stroke-opacity:1;stroke-dasharray:none"
     d="m 21.295144,21.189027 c -0.529846,-0.581209 -1.710907,-1.987778 -2.62458,-3.125709 -0.913673,-1.137931 -2.036884,-2.49569 -2.496026,-3.017242 -0.459141,-0.521551 -1.02043,-1.219827 -1.247308,-1.551724 -0.226879,-0.331896 -0.689327,-0.989627 -1.027664,-1.461623 -0.338337,-0.471997 -0.613235,-0.879325 -0.610885,-0.905173 0.0061,-0.06748 1.462748,-1.1529508 1.494876,-1.11398 0.08669,0.105155 1.37286,1.926955 1.666194,2.360087 0.192663,0.284482 0.727859,0.943965 1.189324,1.465517 0.461466,0.521551 1.522561,1.801724 2.357989,2.844827 0.835429,1.043104 2.013169,2.445733 2.617201,3.116956 l 1.098239,1.220402 -0.727001,0.612203 -0.727002,0.612202 -0.963357,-1.056743 z"
     id="path2820" />
  <path
     style="opacity:0.98999999000000005;fill:#ffffff;fill-opacity:1;stroke:#000000;stroke-width:0.875;stroke-miterlimit:4;stroke-opacity:1;stroke-dasharray:none"
     d="m 36.086132,35.278338 c -0.142377,-0.01622 -0.394237,-0.156113 -0.560345,-0.311246 -0.165948,-0.154986 -0.515086,-0.409401 -0.775862,-0.565369 -1.548084,-0.925898 -3.611233,-2.837642 -6.886905,-6.381509 -1.117552,-1.209051 -2.469144,-2.647567 -3.003538,-3.196701 -0.534394,-0.549135 -0.971626,-1.018288 -0.971626,-1.042564 0,-0.02427 0.314929,-0.3099 0.699842,-0.634722 l 0.699842,-0.590586 1.004698,1.029701 c 0.552584,0.566335 1.701442,1.786165 2.553018,2.710734 3.342823,3.629353 5.072657,5.280181 6.508118,6.210874 0.497844,0.322781 1.032676,0.69176 1.188515,0.819951 0.268441,0.220818 0.27572,0.241499 0.138386,0.393251 -0.121439,0.134189 -0.135752,0.270543 -0.08822,0.840453 0.06267,0.751476 0.04243,0.780186 -0.505919,0.717733 l 0,0 z"
     id="path2822" />
</svg>
