<?xml version="1.0" encoding="UTF-8" standalone="no"?>
<!-- Created with Inkscape (http://www.inkscape.org/) -->

<svg
   xmlns:dc="http://purl.org/dc/elements/1.1/"
   xmlns:cc="http://creativecommons.org/ns#"
   xmlns:rdf="http://www.w3.org/1999/02/22-rdf-syntax-ns#"
   xmlns:svg="http://www.w3.org/2000/svg"
   xmlns="http://www.w3.org/2000/svg"
   xmlns:sodipodi="http://sodipodi.sourceforge.net/DTD/sodipodi-0.dtd"
   xmlns:inkscape="http://www.inkscape.org/namespaces/inkscape"
   id="svg3074"
   version="1.1"
   inkscape:version="0.48.1 r9760"
   width="50"
   height="45"
   sodipodi:docname="delete.svg">
  <metadata
     id="metadata3080">
    <rdf:RDF>
      <cc:Work
         rdf:about="">
        <dc:format>image/svg+xml</dc:format>
        <dc:type
           rdf:resource="http://purl.org/dc/dcmitype/StillImage" />
        <dc:title></dc:title>
      </cc:Work>
    </rdf:RDF>
  </metadata>
  <defs
     id="defs3078" />
  <sodipodi:namedview
     pagecolor="#ffffff"
     bordercolor="#666666"
     borderopacity="1"
     objecttolerance="10"
     gridtolerance="10"
     guidetolerance="10"
     inkscape:pageopacity="0"
     inkscape:pageshadow="2"
     inkscape:window-width="1246"
     inkscape:window-height="960"
     id="namedview3076"
     showgrid="false"
     inkscape:zoom="5.8"
     inkscape:cx="-6.4655172"
     inkscape:cy="21.206897"
     inkscape:window-x="0"
     inkscape:window-y="0"
     inkscape:window-maximized="0"
     inkscape:current-layer="svg3074" />
  <path
     style="fill:#f20000;stroke:#c40000;stroke-width:2;stroke-linecap:butt;stroke-linejoin:miter;stroke-opacity:1;fill-opacity:1;stroke-miterlimit:4;stroke-dasharray:none"
     d="m 13.965517,10.517241 c 1.690421,2.253894 -0.398491,-0.5578877 0.862069,1.206897 0.167023,0.233831 0.352454,0.454244 0.517242,0.689655 0.23766,0.339515 0.430762,0.710866 0.689655,1.034483 0.432317,0.540397 0.931108,1.024427 1.37931,1.551724 0.529012,0.622367 1.038486,1.261114 1.551724,1.896552 0.693676,0.858837 1.345931,1.751936 2.068966,2.586207 2.006414,2.315093 2.722236,2.816674 4.827586,5 2.089755,2.167153 4.024561,4.473309 6.206897,6.551724 1.229561,1.171011 1.646161,1.557211 2.931034,2.413793 0.27883,0.185887 0.589377,0.322461 0.862069,0.517241 0.132275,0.09448 0.209575,0.254659 0.344828,0.344828 0.04782,0.03188 0.172413,-0.05747 0.172413,0 0,0.05747 -0.114942,0 -0.172413,0"
     id="path3828"
     inkscape:connector-curvature="0" />
  <path
     style="fill:#f20a00;stroke:#cb0000;stroke-width:2;stroke-linecap:butt;stroke-linejoin:miter;stroke-opacity:1;fill-opacity:1;stroke-miterlimit:4;stroke-dasharray:none"
     d="m 39.482759,10.344828 c -0.80778,0.673149 -0.839149,0.761536 -1.551725,1.206896 -0.859104,0.53694 -1.334888,0.75908 -2.241379,1.37931 -0.645137,0.44141 -1.26218,0.922564 -1.896552,1.379311 -1.726958,1.24341 -3.016033,2.10184 -4.655172,3.448276 -3.46e-4,2.84e-4 -5.170773,4.481352 -5.172414,4.482758 -0.743084,0.63693 -1.506655,1.249995 -2.241379,1.896552 -0.702341,0.61806 -1.347681,1.300708 -2.068966,1.896552 -0.602656,0.497846 -1.300948,0.873047 -1.896551,1.37931 -0.557351,0.473748 -1.019054,1.050387 -1.551724,1.551724 -0.444878,0.418709 -0.917639,0.806781 -1.379311,1.206897 -0.400408,0.347021 -0.83223,0.659816 -1.206896,1.034483 -3.243902,3.243901 0.986925,-0.807718 -1.379311,1.896551 -0.189225,0.216258 -0.486463,0.31405 -0.689655,0.517242 -0.672885,0.672885 0.03991,0.09259 -0.172414,0.517241 -0.03635,0.0727 -0.114942,0.114943 -0.172413,0.172414"
     id="path3864"
     inkscape:connector-curvature="0" />
</svg>
