<?xml version="1.0" encoding="UTF-8" standalone="no"?>
<!-- Created with Inkscape (http://www.inkscape.org/) -->

<svg
   xmlns:dc="http://purl.org/dc/elements/1.1/"
   xmlns:cc="http://creativecommons.org/ns#"
   xmlns:rdf="http://www.w3.org/1999/02/22-rdf-syntax-ns#"
   xmlns:svg="http://www.w3.org/2000/svg"
   xmlns="http://www.w3.org/2000/svg"
   xmlns:sodipodi="http://sodipodi.sourceforge.net/DTD/sodipodi-0.dtd"
   xmlns:inkscape="http://www.inkscape.org/namespaces/inkscape"
   id="svg3074"
   version="1.1"
   inkscape:version="0.47 r22583"
   width="50"
   height="45"
   sodipodi:docname="print.svg">
  <metadata
     id="metadata3080">
    <rdf:RDF>
      <cc:Work
         rdf:about="">
        <dc:format>image/svg+xml</dc:format>
        <dc:type
           rdf:resource="http://purl.org/dc/dcmitype/StillImage" />
        <dc:title />
      </cc:Work>
    </rdf:RDF>
  </metadata>
  <defs
     id="defs3078">
    <inkscape:perspective
       sodipodi:type="inkscape:persp3d"
       inkscape:vp_x="0 : 22.5 : 1"
       inkscape:vp_y="0 : 1000 : 0"
       inkscape:vp_z="50 : 22.5 : 1"
       inkscape:persp3d-origin="25 : 15 : 1"
       id="perspective2818" />
    <inkscape:perspective
       id="perspective2961"
       inkscape:persp3d-origin="0.5 : 0.33333333 : 1"
       inkscape:vp_z="1 : 0.5 : 1"
       inkscape:vp_y="0 : 1000 : 0"
       inkscape:vp_x="0 : 0.5 : 1"
       sodipodi:type="inkscape:persp3d" />
  </defs>
  <sodipodi:namedview
     pagecolor="#ffffff"
     bordercolor="#666666"
     borderopacity="1"
     objecttolerance="10"
     gridtolerance="10"
     guidetolerance="10"
     inkscape:pageopacity="0"
     inkscape:pageshadow="2"
     inkscape:window-width="1920"
     inkscape:window-height="1124"
     id="namedview3076"
     showgrid="false"
     inkscape:zoom="32"
     inkscape:cx="25.678254"
     inkscape:cy="10.227493"
     inkscape:window-x="0"
     inkscape:window-y="0"
     inkscape:window-maximized="1"
     inkscape:current-layer="svg3074" />
  <path
     style="fill:#ffffff;stroke:none;stroke-width:1px;stroke-linecap:butt;stroke-linejoin:miter;stroke-opacity:1;fill-opacity:0.55072463000000005"
     d="m 7.1875,38.1875 c 3.125,0.8125 9.53125,1.625 9.53125,1.625 l 8.25,0.59375 8.90625,-0.625 4.25,-0.4375 3.3125,-0.375 2.96875,-0.53125 -9,-10.15625 -20.21875,-0.375 -8,9.9375 0.03125,0.46875 0.09375,0"
     id="path3613" />
  <path
     style="fill:#000000"
     d="m 22.364968,40.048304 c 1.497713,-0.07763 3.948514,-0.07763 5.446226,0 1.497713,0.07763 0.382797,0.549927 -2.612626,0.549927 -2.995425,0 -4.331312,-0.472296 -2.8336,-0.549927 z M 15.91573,39.65455 c 0.613228,-0.09273 1.537795,-0.154553 2.017121,0.0055 0.584575,0.195197 0.193274,0.337352 -0.91609,0.334327 -1.109416,-0.0033 -1.71426,-0.247108 -1.101031,-0.339835 l 0,2.1e-5 0,-1.3e-5 z m 16.606811,0.03355 c 0.610179,-0.09244 1.940109,-0.125582 2.550288,-0.03315 0.610179,0.09243 -0.121075,0.33379 -1.341435,0.33379 -1.220358,0 -1.819032,-0.208212 -1.208853,-0.300644 z M 12.4734,39.275854 c 0.27313,-0.110501 0.817753,-0.117225 1.210273,-0.01493 0.392519,0.102283 0.511552,0.397098 -0.154098,0.40532 -0.66565,0.0083 -1.329305,-0.279858 -1.056175,-0.390372 l 0,-2.1e-5 z m 24.813558,-0.01255 c 0.38571,-0.100975 1.111873,-0.104641 1.613696,-0.0082 0.501823,0.09649 0.09786,0.333792 -0.789676,0.33827 -0.887533,0.0044 -1.209729,-0.22916 -0.82402,-0.330129 l 0,8e-6 0,5.1e-5 z M 9.6494315,38.872447 c 0.2731302,-0.110501 0.8177525,-0.117227 1.2102725,-0.01493 0.392519,0.102283 0.395542,0.391573 -0.270108,0.399796 -0.6656498,0.0083 -1.2132946,-0.274334 -0.9401645,-0.384849 l 0,-2e-5 z M 40.519055,38.85909 c 0.388296,-0.101465 1.023689,-0.101465 1.411985,0 0.388295,0.101477 0.08165,0.306031 -0.694943,0.306031 -0.776591,0 -1.105338,-0.204554 -0.717042,-0.306031 z M 7.0587431,38.415977 c -0.3364566,-0.213923 -0.00404,-0.93034 1.1100734,-2.391143 L 9.7592678,33.939126 8.0440657,33.815046 6.3288597,33.690961 6.2215367,22.70696 6.1142136,11.722963 7.2300969,11.478246 c 1.9840884,-0.435118 2.1244437,-0.540117 2.1244437,-1.5893107 0,-1.2318636 0.1254406,-1.2810042 4.1350974,-1.6199537 l 3.126537,-0.2642951 17.347238,-0.011938 3.328248,0.3429469 c 3.232698,0.3331032 3.331914,0.3747732 3.45581,1.4513831 0.09501,0.8256205 0.403807,1.1697165 1.210272,1.3486275 2.750492,0.610174 2.518677,-0.509271 2.400273,11.591158 l -0.107291,10.964082 -1.714553,0.124052 c -0.943004,0.06823 -1.714552,0.27031 -1.714552,0.449077 0,0.17876 0.907703,1.174072 2.01712,2.211801 1.109417,1.037726 2.017121,1.970274 2.017121,2.072324 0,0.102049 -0.408467,0.171214 -0.907704,0.153697 C 43.44892,38.684387 43.274685,38.576045 43.56097,38.461154 43.894902,38.32714 43.027224,37.142505 41.140425,35.156401 39.52284,33.4537 37.563969,31.207616 36.787379,30.165124 l -1.411985,-1.895437 -8.925759,-0.01247 c -4.909168,-0.0068 -9.464964,-0.120313 -10.123994,-0.252121 -1.138438,-0.227688 -1.392559,0.0089 -5.092196,4.740234 -2.1416782,2.738935 -3.8944269,5.103409 -3.8949955,5.25439 -4.033e-4,0.15098 0.4074339,0.353181 0.9066712,0.449342 0.7828768,0.150788 0.7967465,0.181536 0.1008558,0.223593 -0.4437666,0.02683 -1.0230235,-0.08868 -1.2872334,-0.25667 l 0,-8e-6 z M 43.645592,21.778201 c 0,-8.426356 -0.06025,-9.230248 -0.705992,-9.419038 -0.617497,-0.180533 -5.279708,-1.058238 -5.621175,-1.058238 -0.07018,0 -0.127619,1.732893 -0.127619,3.850865 0,3.550677 -0.0772,3.928061 -0.990224,4.841094 l -0.990222,0.99022 -9.920566,0 -9.920567,0 -0.990225,-0.99022 c -0.913029,-0.913033 -0.99022,-1.290417 -0.99022,-4.841094 0,-2.117972 -0.05743,-3.850865 -0.12762,-3.850865 -0.341466,0 -5.0036769,0.877705 -5.6211743,1.058238 -0.6458499,0.188823 -0.7059924,0.994537 -0.7059924,9.457976 l 0,9.25157 2.2188332,0 2.2188325,0 0,-2.091977 c 0,-1.592645 0.209369,-2.314839 0.877169,-3.025681 l 0.877174,-0.933704 12.107255,0 c 11.875567,0 12.125126,0.01679 13.040962,0.877169 0.741982,0.697059 0.933705,1.304528 0.933705,2.958446 0,1.1447 0.07555,2.156915 0.167899,2.249364 0.09234,0.09245 1.090813,0.105189 2.218832,0.02832 l 2.050935,-0.139811 0,-9.212634 z m -4.145513,-2.463045 c -0.98396,-0.550651 -0.897837,-2.247726 0.130632,-2.574148 0.987909,-0.31355 1.99776,0.421096 1.99776,1.45333 0,0.984896 -1.221685,1.628236 -2.128392,1.120818 z m 1.547183,-0.791309 c 0.426327,-0.689815 -0.918802,-1.850038 -1.486597,-1.282243 -0.252931,0.252931 -0.350697,0.744386 -0.217256,1.092125 0.279205,0.727596 1.301196,0.841629 1.703853,0.190118 z M 38.929346,15.07862 c -0.594336,-1.548813 1.549076,-2.686747 2.43005,-1.290109 0.307691,0.487788 0.278535,0.847448 -0.106286,1.311129 -0.690081,0.831493 -2.001173,0.819633 -2.323764,-0.02102 z m 2.093989,-0.953726 c 0,-0.874918 -1.573903,-0.754395 -1.744918,0.133618 -0.110325,0.572887 0.06958,0.708756 0.801325,0.605137 0.518978,-0.0735 0.943593,-0.405929 0.943593,-0.738755 z m -4.235953,0.605137 c 0,-1.520151 -0.12576,-1.815409 -0.77323,-1.815409 -0.425275,0 -0.848914,-0.226926 -0.941416,-0.50428 -0.128277,-0.384613 -2.449818,-0.504281 -9.783096,-0.504281 -7.333363,0 -9.654782,0.119664 -9.782942,0.504281 -0.09242,0.277354 -0.402525,0.50428 -0.689122,0.50428 -0.2866,0 -0.629619,0.542637 -0.762262,1.205859 -0.500333,2.501673 -0.863492,2.424958 11.479354,2.424958 l 11.252714,0 0,-1.815408 z M 25.289794,9.888944 c 4.881431,0 10.100731,0.141207 11.598444,0.3138 1.769668,0.203931 2.723113,0.171309 2.723113,-0.09317 0,-0.842224 -2.545844,-1.0274811 -14.119845,-1.0274811 -11.662491,0 -14.926693,0.2298954 -14.926693,1.0512671 0,0.269556 0.999899,0.297783 2.924825,0.08258 1.608654,-0.179847 6.918723,-0.326996 11.800156,-0.326996 z m -7.866771,-2.0171247 7.866771,0 7.86677,0 -15.733541,0 z"
     id="path2937"
     sodipodi:nodetypes="cssccssccccscccsccccscccsccccsccccccccccsccccsscccsssssscccssssscccscscccccsssccccccccsssccccscccscccscccscccscssssccccscsssccccccc" />
  <path
     style="opacity:0.59649120000000000;fill:#75be5b;fill-opacity:0.55072463;stroke:#860000;stroke-width:0.24382992000000001;stroke-linecap:butt;stroke-miterlimit:4;stroke-opacity:1;stroke-dasharray:none"
     d="m 39.378894,30.954062 c -0.0354,-0.0922 -0.09005,-0.83969 -0.12143,-1.661092 -0.06547,-1.713643 -0.12237,-2.147659 -0.342597,-2.613179 C 38.649385,26.118606 37.942311,25.480905 37.40777,25.320558 36.528051,25.056667 32.531241,24.97412 20.356407,24.968392 l -7.233648,-0.0034 -0.58338,0.624814 c -1.049547,1.12409 -1.131684,1.385691 -1.177067,3.748885 l -0.03307,1.722049 -2.1926612,0 -2.1926606,0 0.030373,-8.153063 c 0.029635,-7.955031 0.056843,-9.102882 0.2337159,-9.859873 0.089165,-0.381614 0.1960459,-0.548315 0.4062028,-0.63355 0.3305813,-0.134076 5.0930701,-1.04278 5.4651761,-1.04278 0.07909,0 0.160345,0.04732 0.183187,0.106675 0.02258,0.05867 0.06621,1.560512 0.09696,3.337422 0.03075,1.776911 0.08486,3.395332 0.120255,3.596492 0.119726,0.680508 0.354085,1.065198 1.134819,1.862748 l 0.712595,0.727945 9.981687,0 9.981686,0 0.666833,-0.702277 c 0.366758,-0.386252 0.738558,-0.834057 0.82622,-0.995122 0.363442,-0.667763 0.375412,-0.805511 0.463158,-5.329815 0.02717,-1.400761 0.06765,-2.565094 0.08996,-2.587406 0.05709,-0.05709 0.847813,0.06411 2.719111,0.41678 2.313858,0.43607 2.92578,0.581415 3.087509,0.733352 0.408954,0.384192 0.456662,1.569313 0.435222,10.811351 l -0.01768,7.619685 -1.005799,0.07017 c -0.553189,0.03859 -1.47966,0.07288 -2.058823,0.0762 l -1.053026,0.006 -0.06437,-0.167633 0,0 z m 1.446815,-11.574304 c 0.500526,-0.208083 0.81137,-0.673876 0.813706,-1.219323 0.0017,-0.389169 -0.118489,-0.683823 -0.411509,-1.009128 -0.300912,-0.334065 -0.643172,-0.480271 -1.133087,-0.484032 -0.757852,-0.0058 -1.202822,0.398703 -1.294054,1.176417 -0.06707,0.571735 0.197979,1.194493 0.619172,1.454804 0.378914,0.234182 0.957487,0.267627 1.405772,0.08126 l 0,0 z m -0.161034,-3.810236 c 0.713705,-0.312708 1.091604,-1.050997 0.816489,-1.595146 -0.282597,-0.558947 -0.666139,-0.831253 -1.174402,-0.8338 -0.450513,-0.0023 -0.743755,0.121792 -1.081552,0.457526 -0.378472,0.376158 -0.490945,0.743709 -0.382424,1.249725 0.170717,0.796024 0.948794,1.104239 1.821889,0.721695 z"
     id="path3749" />
  <path
     style="opacity:0.5964912;fill:#75be5b;fill-opacity:0.55072464;stroke:#860000;stroke-width:0.24382992;stroke-linecap:butt;stroke-miterlimit:4;stroke-opacity:1;stroke-dasharray:none"
     d="m 10.807628,10.26599 c -0.479401,-0.138149 -0.03176,-0.5166593 0.815148,-0.6892581 0.673669,-0.1372933 2.172603,-0.2663241 4.08057,-0.3512623 2.441543,-0.1086918 17.616063,-0.1067539 19.689266,0.00251 2.923013,0.1540575 3.874589,0.3294924 4.140395,0.7633332 0.05187,0.084654 0.04004,0.1268172 -0.05624,0.2005682 -0.102203,0.07828 -0.284538,0.08837 -1.127713,0.06239 -0.553189,-0.01704 -1.554416,-0.07283 -2.224948,-0.123977 C 33.89342,9.9601559 30.655182,9.8870792 25.334632,9.8868089 c -6.334199,-3.231e-4 -9.283933,0.08444 -12.496284,0.3590881 -1.166656,0.09975 -1.734791,0.105366 -2.030716,0.02009 l 0,0 z"
     id="path3751" />
  <path
     style="opacity:1;fill:#ffb500;fill-opacity:0.55072463;stroke:#860000;stroke-width:0.24382992000000001;stroke-linecap:butt;stroke-miterlimit:4;stroke-opacity:1;stroke-dasharray:none"
     d="m 39.955378,18.863605 c -0.249007,-0.07214 -0.553168,-0.421478 -0.604307,-0.694072 -0.0969,-0.516511 0.200013,-1.031485 0.594709,-1.031485 0.457093,0 1.146357,0.631424 1.146357,1.05016 0,0.243388 -0.224014,0.537952 -0.490064,0.644404 -0.270166,0.108099 -0.364868,0.112637 -0.646695,0.03099 z"
     id="path3757" />
  <path
     style="fill:#ff0000;fill-opacity:0.55072463;stroke:#860000;stroke-width:0.24382992000000001;stroke-linecap:butt;stroke-miterlimit:4;stroke-opacity:1;stroke-dasharray:none"
     d="m 39.365698,14.716621 c -0.115843,-0.179459 -0.0528,-0.602772 0.11844,-0.795294 0.159896,-0.179767 0.560722,-0.352457 0.821776,-0.354048 0.319838,-0.0019 0.628681,0.223726 0.653252,0.477342 0.04081,0.421183 -0.399353,0.737875 -1.09495,0.787809 -0.375309,0.02694 -0.411849,0.01845 -0.498518,-0.115809 z"
     id="path3771" />
</svg>
