<?xml version="1.0" encoding="UTF-8" standalone="no"?>
<svg
   xmlns:dc="http://purl.org/dc/elements/1.1/"
   xmlns:cc="http://creativecommons.org/ns#"
   xmlns:rdf="http://www.w3.org/1999/02/22-rdf-syntax-ns#"
   xmlns:svg="http://www.w3.org/2000/svg"
   xmlns="http://www.w3.org/2000/svg"
   xmlns:sodipodi="http://sodipodi.sourceforge.net/DTD/sodipodi-0.dtd"
   xmlns:inkscape="http://www.inkscape.org/namespaces/inkscape"
   version="1.1"
   id="tray-icon-layer"
   x="0px"
   y="0px"
   width="32px"
   height="32px"
   viewBox="0 0 32 32"
   style="enable-background:new 0 0 32 32;"
   xml:space="preserve"
   inkscape:version="0.47 r22583"
   sodipodi:docname="tray-icon.svg"><metadata
   id="metadata12"><rdf:RDF><cc:Work
       rdf:about=""><dc:format>image/svg+xml</dc:format><dc:type
         rdf:resource="http://purl.org/dc/dcmitype/StillImage" /></cc:Work></rdf:RDF></metadata><defs
   id="defs10"><inkscape:perspective
     sodipodi:type="inkscape:persp3d"
     inkscape:vp_x="0 : 16 : 1"
     inkscape:vp_y="0 : 1000 : 0"
     inkscape:vp_z="32 : 16 : 1"
     inkscape:persp3d-origin="16 : 10.666667 : 1"
     id="perspective14" /><inkscape:perspective
     id="perspective2832"
     inkscape:persp3d-origin="0.5 : 0.33333333 : 1"
     inkscape:vp_z="1 : 0.5 : 1"
     inkscape:vp_y="0 : 1000 : 0"
     inkscape:vp_x="0 : 0.5 : 1"
     sodipodi:type="inkscape:persp3d" /></defs><sodipodi:namedview
   pagecolor="#ffffff"
   bordercolor="#666666"
   borderopacity="1"
   objecttolerance="10"
   gridtolerance="10"
   guidetolerance="10"
   inkscape:pageopacity="0"
   inkscape:pageshadow="2"
   inkscape:window-width="1920"
   inkscape:window-height="1124"
   id="namedview8"
   showgrid="false"
   inkscape:zoom="16"
   inkscape:cx="6.512441"
   inkscape:cy="18.424809"
   inkscape:window-x="0"
   inkscape:window-y="0"
   inkscape:window-maximized="1"
   inkscape:current-layer="tray-icon-layer" />
<g
   id="tray-icon">
	<rect
   style="fill:none;"
   width="32"
   height="32"
   id="rect4" />
	<path
   style="fill:#812530"
   d="m 15.9375,3.5 c -7.0303226,0 -12.75,5.69164 -12.75,12.6875 0,6.99586 5.7196774,12.6875 12.75,12.6875 7.030323,0 12.75,-5.69164 12.75,-12.6875 C 28.6875,9.19164 22.967823,3.5 15.9375,3.5 z"
   id="path6" />
</g>
<text
   xml:space="preserve"
   style="font-size:23.41442871px;font-style:normal;font-variant:normal;font-weight:bold;font-stretch:normal;text-indent:0;text-align:start;text-decoration:none;line-height:normal;letter-spacing:normal;word-spacing:normal;text-transform:none;direction:ltr;block-progression:tb;writing-mode:lr-tb;text-anchor:start;color:#000000;fill:#f9f9f9;fill-opacity:1;fill-rule:nonzero;stroke:none;stroke-width:1px;marker:none;visibility:visible;display:inline;overflow:visible;enable-background:accumulate;font-family:Bitstream Vera Sans;-inkscape-font-specification:Andale Mono Bold"
   x="6.5032539"
   y="24.563208"
   id="text2820"
   transform="scale(1.15647,0.86470035)"><tspan
     sodipodi:role="line"
     id="tspan2822"
     x="6.5032539"
     y="24.563208"
     style="font-style:italic;font-weight:normal;-inkscape-font-specification:Andale Mono Italic">e</tspan></text>

<g
   transform="matrix(0.95931967,0,0,0.8968909,1.1008298,0.82722118)"
   style="font-size:25.16741943px;font-style:normal;font-variant:normal;font-weight:bold;font-stretch:normal;text-indent:0;text-align:start;text-decoration:none;line-height:normal;letter-spacing:normal;word-spacing:normal;text-transform:none;direction:ltr;block-progression:tb;writing-mode:lr-tb;text-anchor:start;color:#000000;fill:#000000;fill-opacity:1;fill-rule:nonzero;stroke:none;stroke-width:1px;marker:none;visibility:visible;display:inline;overflow:visible;enable-background:accumulate;font-family:Bitstream Vera Sans;-inkscape-font-specification:Andale Mono Bold"
   id="text2820-0"><path
     d="m 20.696364,20.289886 0.01887,-0.01207 c 0.305143,-0.132007 1.451864,-0.69185 2.310501,-1.406899 0.737622,-0.614272 0.846873,-1.792142 0.846894,-3.015484 -2.1e-5,-0.779188 -0.115325,-1.507733 -0.345914,-2.185642 -0.23067,-0.685669 -0.58056,-1.31292 -1.049712,-1.881743 C 21.72154,10.837442 20.775246,10.105 19.63812,9.5907181 18.508914,9.076464 17.284298,8.8193299 15.964271,8.8193153 c -0.92245,1.46e-5 -1.805127,0.1207897 -2.648034,0.3623255 -0.842927,0.2337726 -1.622228,0.5805139 -2.337905,1.0402252 -1.176909,0.763623 -2.0953704,1.7532 -2.7553859,2.968732 -0.6520728,1.207761 -0.9781067,2.516807 -0.9781029,3.927142 -3.8e-6,1.161006 0.2107258,2.251877 0.6321891,3.272619 0.429406,1.012955 1.045689,1.909028 1.8488519,2.688221 0.7951978,0.763611 1.7057078,1.344111 2.7315308,1.741501 1.033757,0.405179 2.135115,0.60777 3.304079,0.607772 1.001945,-2e-6 2.003903,-0.183112 3.005876,-0.549332 1.001943,-0.366224 1.856788,-0.861011 2.564537,-1.484367 l 1.276306,1.893444 c -0.994026,0.755816 -2.07948,1.33242 -3.256367,1.729813 -1.168966,0.405176 -2.357798,0.607767 -3.566497,0.607771 -1.47114,-4e-6 -2.858772,-0.257138 -4.1629,-0.771402 C 10.318306,26.3473 9.1573066,25.607065 8.1394499,24.633075 7.1215835,23.65908 6.3462588,22.533145 5.8134739,21.255264 5.2806841,19.969596 5.0142907,18.590423 5.0142926,17.11774 5.0142907,15.699613 5.2846599,14.347712 5.8254022,13.062031 6.3661387,11.776371 7.1374876,10.64654 8.1394499,9.6725336 9.1414026,8.7063468 10.306377,7.9583205 11.634377,7.4284525 c 1.335936,-0.5298359 2.719591,-0.7947619 4.150972,-0.7947787 1.781247,1.68e-5 3.399488,0.3350703 4.85473,1.0051613 1.455207,0.6623308 2.67187,1.6207395 3.649993,2.8752299 0.596382,0.763622 1.045673,1.593464 1.347874,2.489526 0.310107,0.888292 0.465172,1.823325 0.465194,2.805101 -2.2e-5,2.111624 -0.555265,3.318826 -1.851428,4.487614 -1.296204,1.168794 -4.007242,2.250339 -6.477308,2.362598 l 2.512772,-1.759983"
     style="fill:#ffffff;marker:none"
     id="path2856"
     sodipodi:nodetypes="ccssscsssssscsssscccscssssssscscsscc" /></g></svg>